<svg width="48" height="48" viewBox="0 0 48 48" fill="none" xmlns="http://www.w3.org/2000/svg">
<path d="M0 0H48V48H0V0Z" fill="#1C1B22"/>
<path d="M21.825 15.798C22.4336 15.285 23.204 15.0037 24 15.0037C24.796 15.0037 25.5664 15.285 26.175 15.798L36.3 24.336C37.0605 24.978 37.5 25.9215 37.5 26.916V41.6205C37.5 42.3167 37.2234 42.9844 36.7312 43.4767C36.2389 43.9689 35.5712 44.2455 34.875 44.2455H29.625C28.9288 44.2455 28.2611 43.9689 27.7688 43.4767C27.2766 42.9844 27 42.3167 27 41.6205V33.3705C27 33.271 26.9605 33.1757 26.8902 33.1053C26.8198 33.035 26.7245 32.9955 26.625 32.9955H21.375C21.2755 32.9955 21.1802 33.035 21.1098 33.1053C21.0395 33.1757 21 33.271 21 33.3705V41.6205C21 42.3167 20.7234 42.9844 20.2312 43.4767C19.7389 43.9689 19.0712 44.2455 18.375 44.2455H13.125C12.7803 44.2455 12.4389 44.1776 12.1205 44.0457C11.802 43.9138 11.5126 43.7204 11.2688 43.4767C11.0251 43.2329 10.8317 42.9435 10.6998 42.625C10.5679 42.3066 10.5 41.9652 10.5 41.6205V26.916C10.5 25.9215 10.9395 24.978 11.7 24.336L21.825 15.798ZM24.7245 17.5185C24.5217 17.3478 24.2651 17.2542 24 17.2542C23.7349 17.2542 23.4783 17.3478 23.2755 17.5185L13.1505 26.055C13.0252 26.1605 12.9244 26.292 12.8553 26.4405C12.7861 26.5889 12.7502 26.7507 12.75 26.9145V41.619C12.75 41.826 12.918 41.994 13.125 41.994H18.375C18.4745 41.994 18.5698 41.9545 18.6402 41.8842C18.7105 41.8138 18.75 41.7185 18.75 41.619V33.369C18.75 31.9185 19.926 30.744 21.375 30.744H26.625C28.074 30.744 29.25 31.9185 29.25 33.369V41.619C29.25 41.826 29.418 41.994 29.625 41.994H34.875C34.9745 41.994 35.0698 41.9545 35.1402 41.8842C35.2105 41.8138 35.25 41.7185 35.25 41.619V26.916C35.2498 26.7522 35.2139 26.5904 35.1447 26.442C35.0756 26.2935 34.9748 26.162 34.8495 26.0565L24.7245 17.5185Z" fill="#FBFBFE"/>
<path d="M9.87998 3V11H8.59092L4.82139 5.55078H4.75498V11H3.30576V3H4.60264L8.36826 8.45312H8.43857V3H9.87998Z" fill="#FBFBFE"/>
<path d="M13.5028 11.1172C12.9013 11.1172 12.3817 10.9922 11.9442 10.7422C11.5093 10.4896 11.1747 10.1328 10.9403 9.67188C10.706 9.20833 10.5888 8.66276 10.5888 8.03516C10.5888 7.41797 10.706 6.8763 10.9403 6.41016C11.1773 5.94141 11.508 5.57682 11.9325 5.31641C12.357 5.05339 12.8557 4.92188 13.4286 4.92188C13.7984 4.92188 14.1474 4.98177 14.4755 5.10156C14.8062 5.21875 15.0979 5.40104 15.3505 5.64844C15.6057 5.89583 15.8062 6.21094 15.9521 6.59375C16.0979 6.97396 16.1708 7.42708 16.1708 7.95312V8.38672H11.2528V7.43359H14.8153C14.8127 7.16276 14.7541 6.92187 14.6396 6.71094C14.525 6.4974 14.3648 6.32943 14.1591 6.20703C13.956 6.08464 13.719 6.02344 13.4481 6.02344C13.1591 6.02344 12.9052 6.09375 12.6864 6.23438C12.4677 6.3724 12.2971 6.55469 12.1747 6.78125C12.0549 7.00521 11.9937 7.2513 11.9911 7.51953V8.35156C11.9911 8.70052 12.0549 9 12.1825 9.25C12.3101 9.4974 12.4885 9.6875 12.7177 9.82031C12.9468 9.95052 13.2151 10.0156 13.5224 10.0156C13.7281 10.0156 13.9143 9.98698 14.081 9.92969C14.2476 9.86979 14.3922 9.78255 14.5146 9.66797C14.6369 9.55339 14.7294 9.41146 14.7919 9.24219L16.1122 9.39062C16.0289 9.73958 15.87 10.0443 15.6356 10.3047C15.4039 10.5625 15.107 10.763 14.745 10.9062C14.383 11.0469 13.969 11.1172 13.5028 11.1172Z" fill="#FBFBFE"/>
<path d="M18.0231 11L16.3278 5H17.7692L18.8239 9.21875H18.8786L19.9567 5H21.3825L22.4606 9.19531H22.5192L23.5583 5H25.0036L23.3044 11H21.8317L20.7067 6.94531H20.6247L19.4997 11H18.0231Z" fill="#FBFBFE"/>
<path d="M27.3304 4.21484V3H33.7132V4.21484H31.2405V11H29.803V4.21484H27.3304Z" fill="#FBFBFE"/>
<path d="M35.2413 11.1211C34.8611 11.1211 34.5187 11.0534 34.214 10.918C33.9119 10.7799 33.6723 10.5768 33.4952 10.3086C33.3207 10.0404 33.2335 9.70964 33.2335 9.31641C33.2335 8.97786 33.296 8.69792 33.421 8.47656C33.546 8.25521 33.7166 8.07813 33.9327 7.94531C34.1489 7.8125 34.3924 7.71224 34.6632 7.64453C34.9366 7.57422 35.2192 7.52344 35.5108 7.49219C35.8624 7.45573 36.1476 7.42318 36.3663 7.39453C36.5851 7.36328 36.7439 7.31641 36.8429 7.25391C36.9444 7.1888 36.9952 7.08854 36.9952 6.95312V6.92969C36.9952 6.63542 36.908 6.40755 36.7335 6.24609C36.559 6.08464 36.3077 6.00391 35.9796 6.00391C35.6332 6.00391 35.3585 6.07943 35.1554 6.23047C34.9549 6.38151 34.8194 6.5599 34.7491 6.76562L33.4288 6.57812C33.533 6.21354 33.7049 5.90885 33.9444 5.66406C34.184 5.41667 34.477 5.23177 34.8233 5.10938C35.1697 4.98438 35.5525 4.92188 35.9718 4.92188C36.2608 4.92188 36.5486 4.95573 36.8351 5.02344C37.1215 5.09115 37.3832 5.20312 37.6202 5.35937C37.8572 5.51302 38.0473 5.72266 38.1905 5.98828C38.3364 6.25391 38.4093 6.58594 38.4093 6.98437V11H37.0499V10.1758H37.003C36.9171 10.3424 36.796 10.4987 36.6397 10.6445C36.4861 10.7878 36.2921 10.9036 36.0577 10.9922C35.8259 11.0781 35.5538 11.1211 35.2413 11.1211ZM35.6085 10.082C35.8924 10.082 36.1384 10.026 36.3468 9.91406C36.5551 9.79948 36.7153 9.64844 36.8272 9.46094C36.9418 9.27344 36.9991 9.06901 36.9991 8.84766V8.14062C36.9549 8.17708 36.8793 8.21094 36.7726 8.24219C36.6684 8.27344 36.5512 8.30078 36.421 8.32422C36.2908 8.34766 36.1619 8.36849 36.0343 8.38672C35.9067 8.40495 35.796 8.42057 35.7022 8.43359C35.4913 8.46224 35.3025 8.50911 35.1358 8.57422C34.9692 8.63932 34.8377 8.73047 34.7413 8.84766C34.645 8.96224 34.5968 9.11068 34.5968 9.29297C34.5968 9.55339 34.6918 9.75 34.8819 9.88281C35.072 10.0156 35.3142 10.082 35.6085 10.082Z" fill="#FBFBFE"/>
<path d="M39.3437 11V3H40.7577V5.99219H40.8163C40.8892 5.84635 40.9921 5.69141 41.1249 5.52734C41.2577 5.36068 41.4374 5.21875 41.664 5.10156C41.8905 4.98177 42.1796 4.92188 42.5312 4.92188C42.9947 4.92188 43.4127 5.04036 43.7851 5.27734C44.1601 5.51172 44.4569 5.85938 44.6757 6.32031C44.897 6.77865 45.0077 7.34115 45.0077 8.00781C45.0077 8.66667 44.8996 9.22656 44.6835 9.6875C44.4673 10.1484 44.1731 10.5 43.8007 10.7422C43.4283 10.9844 43.0064 11.1055 42.5351 11.1055C42.1913 11.1055 41.9062 11.0482 41.6796 10.9336C41.453 10.819 41.2707 10.681 41.1327 10.5195C40.9973 10.3555 40.8918 10.2005 40.8163 10.0547H40.7343V11H39.3437ZM40.7304 8C40.7304 8.38802 40.7851 8.72786 40.8944 9.01953C41.0064 9.3112 41.1666 9.53906 41.3749 9.70312C41.5858 9.86458 41.841 9.94531 42.1405 9.94531C42.453 9.94531 42.7147 9.86198 42.9257 9.69531C43.1366 9.52604 43.2955 9.29557 43.4022 9.00391C43.5116 8.70964 43.5663 8.375 43.5663 8C43.5663 7.6276 43.5129 7.29688 43.4062 7.00781C43.2994 6.71875 43.1405 6.49219 42.9296 6.32812C42.7187 6.16406 42.4556 6.08203 42.1405 6.08203C41.8384 6.08203 41.5819 6.16146 41.371 6.32031C41.1601 6.47917 40.9999 6.70182 40.8905 6.98828C40.7838 7.27474 40.7304 7.61198 40.7304 8Z" fill="#FBFBFE"/>
</svg>
